<svg width="59" height="57" viewBox="0 0 59 57" fill="none" xmlns="http://www.w3.org/2000/svg">
<path d="M8.37799 5.12999V13.338C8.37799 13.9676 8.90628 14.478 9.55799 14.478C10.2097 14.478 10.738 13.9676 10.738 13.338V5.12999C10.738 4.50037 10.2097 3.98999 9.55799 3.98999C8.90628 3.98999 8.37799 4.50037 8.37799 5.12999Z" fill="#003056"/>
<path d="M5.31001 10.374H13.806C14.4577 10.374 14.986 9.86361 14.986 9.23399C14.986 8.60438 14.4577 8.09399 13.806 8.09399H5.31001C4.6583 8.09399 4.13 8.60438 4.13 9.23399C4.13 9.86361 4.6583 10.374 5.31001 10.374ZM48.1988 22.0658V30.2738C48.1988 30.9035 48.7271 31.4138 49.3788 31.4138C50.0305 31.4138 50.5588 30.9035 50.5588 30.2738V22.0658C50.5588 21.4362 50.0305 20.9258 49.3788 20.9258C48.7271 20.9258 48.1988 21.4362 48.1988 22.0658Z" fill="#003056"/>
<path d="M45.1308 27.3098H53.6268C54.2785 27.3098 54.8068 26.7994 54.8068 26.1698C54.8068 25.5402 54.2785 25.0298 53.6268 25.0298H45.1308C44.4791 25.0298 43.9508 25.5402 43.9508 26.1698C43.9508 26.7994 44.4791 27.3098 45.1308 27.3098ZM14.042 14.9881V20.6938C14.042 21.3234 14.5703 21.8338 15.222 21.8338C15.8737 21.8338 16.402 21.3234 16.402 20.6938V14.9881C16.402 14.3585 15.8737 13.8481 15.222 13.8481C14.5703 13.8481 14.042 14.3585 14.042 14.9881Z" fill="#003056"/>
<path d="M12.2691 18.981H18.1749C18.8266 18.981 19.3549 18.4707 19.3549 17.841C19.3549 17.2114 18.8266 16.701 18.1749 16.701H12.2691C11.6173 16.701 11.0891 17.2114 11.0891 17.841C11.0891 18.4707 11.6173 18.981 12.2691 18.981ZM27.4058 24.2064L24.182 18.0772C23.9826 17.698 24.2678 17.249 24.7077 17.249H34.3991C34.8396 17.249 35.1248 17.698 34.9253 18.0773L31.7016 24.2064C31.4064 24.7677 31.638 25.4539 32.219 25.7392C32.8 26.0244 33.5103 25.8006 33.8055 25.2393L37.0293 19.1101C38.0264 17.2138 36.6005 14.969 34.3991 14.969H24.7077C22.5067 14.969 21.0811 17.214 22.078 19.11L25.3018 25.2392C25.5971 25.8006 26.3074 26.0243 26.8884 25.7391C27.4694 25.4539 27.701 24.7677 27.4058 24.2063V24.2064Z" fill="#003056"/>
<path d="M39.0922 50.5599C43.3399 50.5599 46.7828 47.2336 46.7828 43.13V40.9372C46.7828 32.8469 39.9261 26.2226 31.552 26.2226H27.5547C19.1807 26.2226 12.3245 32.8468 12.3245 40.9372V43.13C12.3245 47.2336 15.7675 50.5599 20.0151 50.5599H39.0922ZM39.0922 52.8399H20.0152C14.4641 52.8399 9.96454 48.4928 9.96454 43.13V40.9372C9.96454 31.5876 17.8774 23.9426 27.5548 23.9426H31.552C41.2295 23.9426 49.1429 31.5877 49.1429 40.9372V43.13C49.1429 48.4929 44.6432 52.8399 39.0922 52.8399Z" fill="#003056"/>
</svg>
