<svg width="48" height="45" viewBox="0 0 48 45" fill="none" xmlns="http://www.w3.org/2000/svg">
<g clip-path="url(#clip0_79_168)">
<path d="M24 21.25H20V23.75H24V21.25Z" fill="#003056"/>
<path d="M35.2667 17.7124C32.902 14.0847 29.676 11.0176 25.84 8.74994C24.0679 7.69699 22.0478 7.06674 19.956 6.91422C17.8643 6.76169 15.7645 7.09153 13.84 7.87494C12.1567 8.61932 10.6919 9.73665 9.57226 11.1304C8.45257 12.5242 7.71161 14.1526 7.41335 15.8749C7.30669 16.4624 7.22669 17.0249 7.14669 17.5749C5.89835 17.7646 4.76252 18.364 3.94193 19.2661C3.12133 20.1682 2.66936 21.3143 2.66669 22.4999V30.1624C2.66669 30.8255 2.94764 31.4614 3.44774 31.9302C3.94783 32.399 4.62611 32.6624 5.33335 32.6624V24.9999V22.4999C5.33335 21.8369 5.61431 21.201 6.1144 20.7322C6.6145 20.2633 7.29278 19.9999 8.00002 19.9999H32.9734C35.5431 20.0032 38.0066 20.9617 39.8237 22.6653C41.6408 24.3688 42.6632 26.6783 42.6667 29.0874V29.9999H40C39.4369 28.7126 38.3879 27.6647 37.0532 27.0561C35.7185 26.4476 34.1915 26.3211 32.7637 26.7008C31.3358 27.0804 30.1071 27.9396 29.3118 29.1144C28.5166 30.2892 28.2106 31.6974 28.4522 33.0703C28.6939 34.4431 29.4662 35.6845 30.6218 36.5575C31.7775 37.4306 33.2355 37.8742 34.7178 37.8036C36.2 37.7331 37.6027 37.1534 38.6581 36.1752C39.7136 35.197 40.3479 33.8887 40.44 32.4999H42.6667C43.3739 32.4999 44.0522 32.2365 44.5523 31.7677C45.0524 31.2989 45.3334 30.663 45.3334 29.9999V29.0874C45.328 26.3898 44.3199 23.7784 42.4826 21.7023C40.6453 19.6262 38.0937 18.2153 35.2667 17.7124ZM14.6667 17.4999H9.24002C9.24002 17.1124 9.36002 16.7124 9.44002 16.2499C9.67038 14.8768 10.2715 13.5816 11.1864 12.4877C12.1012 11.3938 13.2993 10.5374 14.6667 9.99994V17.4999ZM17.3334 17.4999V9.47494C19.8226 9.17189 22.3472 9.68409 24.48 10.9249C27.3917 12.6252 29.9047 14.862 31.8667 17.4999H17.3334ZM34.4 35.4749C33.7407 35.4749 33.0963 35.2917 32.5481 34.9483C32 34.6049 31.5727 34.1168 31.3204 33.5458C31.0681 32.9748 31.0021 32.3465 31.1307 31.7403C31.2594 31.1341 31.5768 30.5773 32.043 30.1402C32.5092 29.7032 33.1031 29.4056 33.7497 29.285C34.3963 29.1644 35.0665 29.2263 35.6756 29.4628C36.2847 29.6993 36.8053 30.0999 37.1716 30.6138C37.5379 31.1277 37.7333 31.7319 37.7333 32.3499C37.7333 33.1787 37.3822 33.9736 36.757 34.5596C36.1319 35.1457 35.2841 35.4749 34.4 35.4749Z" fill="#003056"/>
<path d="M18.8933 30.0001C18.3302 28.7128 17.2812 27.6648 15.9465 27.0563C14.6118 26.4478 13.0848 26.3213 11.657 26.7009C10.2291 27.0806 9.00036 27.9398 8.20514 29.1146C7.40992 30.2894 7.10393 31.6976 7.34555 33.0704C7.58717 34.4433 8.35949 35.6847 9.51513 36.5577C10.6708 37.4307 12.1288 37.8743 13.6111 37.8038C15.0933 37.7333 16.496 37.1536 17.5514 36.1754C18.6069 35.1971 19.2412 33.8888 19.3333 32.5001H26.4C26.4 32.4001 26.4 32.2876 26.4 32.1876C26.3736 31.4501 26.4635 30.713 26.6667 30.0001H18.8933ZM13.3333 35.4751C12.674 35.4751 12.0296 35.2918 11.4814 34.9485C10.9333 34.6051 10.506 34.117 10.2537 33.546C10.0014 32.975 9.93542 32.3466 10.064 31.7405C10.1927 31.1343 10.5101 30.5774 10.9763 30.1404C11.4425 29.7034 12.0364 29.4057 12.683 29.2852C13.3296 29.1646 13.9998 29.2265 14.6089 29.463C15.218 29.6995 15.7386 30.1 16.1049 30.614C16.4712 31.1279 16.6667 31.732 16.6667 32.3501C16.6667 33.1789 16.3155 33.9738 15.6903 34.5598C15.0652 35.1459 14.2174 35.4751 13.3333 35.4751Z" fill="#003056"/>
</g>
<defs>
<clipPath id="clip0_79_168">
<rect width="48" height="45" fill="white"/>
</clipPath>
</defs>
</svg>
