<svg width="18" height="17" viewBox="0 0 18 17" fill="none" xmlns="http://www.w3.org/2000/svg">
<path d="M6.42991 7.34592L8.57183 8.97623L8.60163 8.99308L8.61498 9.00045C8.8002 9.10222 9.0454 9.04827 9.20889 8.87074L9.22316 8.85724L11.8483 5.79287C11.9978 5.62759 12.0003 5.38965 11.8549 5.26209C11.7091 5.13423 11.4701 5.16491 11.3213 5.33016L8.86738 7.91653L6.97287 6.61492C6.79571 6.48615 6.53002 6.54594 6.37989 6.74798C6.23008 6.94945 6.25212 7.21744 6.42991 7.34592Z" fill="white"/>
<path d="M3.76307 8.34485C3.76307 8.2329 3.76555 8.12102 3.77754 8.01123H2.43294C2.42471 8.12099 2.42253 8.2329 2.42253 8.34485C2.42253 8.45891 2.42471 8.569 2.43294 8.67905H3.77754C3.76555 8.569 3.76307 8.45738 3.76307 8.34485Z" fill="white"/>
<path d="M6.1412 4.06809C6.26831 3.98868 6.39806 3.91386 6.52983 3.84733L6.58111 3.82278L5.91104 2.6748C5.74339 2.75819 5.58007 2.85077 5.42157 2.95229L6.09194 4.10088L6.1412 4.06809Z" fill="white"/>
<path d="M3.15599 5.39327L4.32003 6.05435L4.60177 5.57205L3.43727 4.91064C3.33438 5.06702 3.24067 5.2277 3.15599 5.39327Z" fill="white"/>
<path d="M13.4619 10.6863C13.392 10.8166 13.3185 10.9441 13.2358 11.0677L13.2023 11.1162L14.3666 11.7775C14.4697 11.6211 14.5635 11.4626 14.6502 11.2973L13.4888 10.6338L13.4619 10.6863Z" fill="white"/>
<path d="M4.34457 10.6841L4.31768 10.6338L3.15599 11.2949C3.23866 11.4602 3.33435 11.6211 3.43724 11.7775L4.60173 11.1162L4.56783 11.0677C4.48754 10.9441 4.41171 10.8166 4.34457 10.6841Z" fill="white"/>
<path d="M6.1412 12.62L6.09194 12.5869L5.42157 13.7358C5.5801 13.8373 5.74339 13.932 5.91104 14.0158L6.58111 12.8672L6.52983 12.8427C6.39803 12.7764 6.26828 12.7016 6.1412 12.62Z" fill="white"/>
<path d="M11.2227 3.82092L11.7121 4.10088L12.3823 2.95229C12.2239 2.85077 12.0626 2.75819 11.8956 2.6748L11.2227 3.82092Z" fill="white"/>
<path d="M8.5648 13.4025V14.7274C8.67638 14.7372 8.78948 14.7393 8.90278 14.7393C9.01651 14.7393 9.12981 14.7372 9.24105 14.7274V13.4025V13.3887H8.5648V13.4025Z" fill="white"/>
<path d="M9.24105 3.28855V1.96362C9.12981 1.95378 9.01651 1.95166 8.90278 1.95166C8.78948 1.95166 8.67638 1.95378 8.5648 1.96362V3.28855V3.30234H9.24105V3.28855Z" fill="white"/>
<path d="M11.2227 12.8693L11.8956 14.0158C12.0626 13.9296 12.2239 13.8373 12.3823 13.7358L11.7121 12.5869L11.2227 12.8693Z" fill="white"/>
<path d="M14.6502 5.39327C14.5652 5.2277 14.4696 5.06705 14.3666 4.91064L13.2023 5.57205L13.4865 6.05435L14.6502 5.39327Z" fill="white"/>
<path d="M15.3731 8.01123H14.0286H14.0146V8.67905H14.0286H15.3731C15.3815 8.569 15.3833 8.45738 15.3833 8.34485C15.3833 8.2329 15.3815 8.12099 15.3731 8.01123Z" fill="white"/>
<path d="M8.90278 0C4.23098 0.000293391 0.44474 3.73617 0.444443 8.34535C0.44474 12.9545 4.23098 16.6904 8.90278 16.6907C13.5746 16.6904 17.3608 12.9545 17.3611 8.34535C17.3608 3.73617 13.5746 0.000293391 8.90278 0ZM8.90278 15.6138C6.86656 15.6135 5.02812 14.8013 3.6935 13.4849C2.35947 12.1677 1.53605 10.354 1.53589 8.34535C1.53605 6.33666 2.35947 4.52269 3.69346 3.20605C5.02812 1.88937 6.86656 1.07714 8.90278 1.07684C10.9387 1.07717 12.7771 1.88941 14.1121 3.20605C15.4461 4.52269 16.2695 6.33634 16.2696 8.34535C16.2695 10.354 15.4461 12.1677 14.1121 13.4849C12.7771 14.8013 10.9387 15.6135 8.90278 15.6138Z" fill="white"/>
</svg>
