<svg width="49" height="49" viewBox="0 0 49 49" fill="none" xmlns="http://www.w3.org/2000/svg">
<path fill-rule="evenodd" clip-rule="evenodd" d="M9.29228 5.47928C9.57017 4.64559 10.3504 4.08325 11.2292 4.08325H37.7708C38.6496 4.08325 39.4299 4.64559 39.7078 5.47928L41.2841 10.2083H41.8542C42.9818 10.2083 43.8958 11.1223 43.8958 12.2499C43.8958 13.3775 42.9818 14.2916 41.8542 14.2916H39.8125H39.6185L36.7398 43.0781C36.6355 44.1218 35.7573 44.9166 34.7083 44.9166H14.2917C13.2428 44.9166 12.3645 44.1218 12.2601 43.0781L9.38148 14.2916H9.1875H7.14583C6.01826 14.2916 5.10416 13.3775 5.10416 12.2499C5.10416 11.1223 6.01826 10.2083 7.14583 10.2083H7.71595L9.29228 5.47928ZM13.4852 14.2916L16.1394 40.8332H32.8606L35.5148 14.2916H13.4852ZM36.9799 10.2083H12.0202L12.7007 8.16658H36.2992L36.9799 10.2083Z" fill="#003056"/>
</svg>
