<svg width="50" height="48" viewBox="0 0 50 48" fill="none" xmlns="http://www.w3.org/2000/svg">
<path d="M41.6667 6C42.2192 6 42.7491 5.78929 43.1398 5.41421C43.5305 5.03914 43.75 4.53043 43.75 4C43.75 3.46957 43.5305 2.96086 43.1398 2.58579C42.7491 2.21071 42.2192 2 41.6667 2H8.33333C7.7808 2 7.25089 2.21071 6.86019 2.58579C6.46949 2.96086 6.25 3.46957 6.25 4C6.25 4.53043 6.46949 5.03914 6.86019 5.41421C7.25089 5.78929 7.7808 6 8.33333 6H10.5187C10.8229 9.672 12.0667 17.5 17.1729 22C11.7875 27.022 10.6917 37.468 10.4729 42H8.33333C7.7808 42 7.25089 42.2107 6.86019 42.5858C6.46949 42.9609 6.25 43.4696 6.25 44C6.25 44.5304 6.46949 45.0391 6.86019 45.4142C7.25089 45.7893 7.7808 46 8.33333 46H41.6667C42.2192 46 42.7491 45.7893 43.1398 45.4142C43.5305 45.0391 43.75 44.5304 43.75 44C43.75 43.4696 43.5305 42.9609 43.1398 42.5858C42.7491 42.2107 42.2192 42 41.6667 42H39.5271C39.3083 37.472 38.2125 27.026 32.8271 22C37.9333 17.496 39.1771 9.668 39.4813 6H41.6667ZM28.2917 20.252C27.9607 20.4285 27.6861 20.6882 27.4973 21.0032C27.3085 21.3182 27.2127 21.6767 27.2202 22.0401C27.2277 22.4034 27.3382 22.758 27.5398 23.0656C27.7415 23.3732 28.0266 23.6223 28.3646 23.786C33.4417 26.242 35.0312 36.408 35.3542 42H14.6458C14.9604 36.4 16.5583 26.242 21.6354 23.786C21.9734 23.6223 22.2585 23.3732 22.4602 23.0656C22.6618 22.758 22.7723 22.4034 22.7798 22.0401C22.7873 21.6767 22.6915 21.3182 22.5027 21.0032C22.3139 20.6882 22.0393 20.4285 21.7083 20.252C16.4187 17.434 15.0562 9.688 14.7042 6H35.2958C34.9437 9.688 33.5812 17.434 28.2917 20.252ZM25 26C25 26 31.25 30.8 31.25 33.2V40H18.75V33.2C18.75 30.8 25 26 25 26Z" fill="#003056"/>
</svg>
