<svg width="26" height="33" viewBox="0 0 26 33" fill="none" xmlns="http://www.w3.org/2000/svg">
<path d="M13.1235 0C6.01792 0 0 5.76177 0 12.5858C0 19.7326 6.97558 27.0413 11.6675 32.1781C11.6859 32.1987 12.4443 33 13.3781 33H13.4604C14.3953 33 15.1482 32.1987 15.1667 32.1781C19.5693 27.3599 26 19.4139 26 12.5858C26 5.76074 21.3059 0 13.1235 0ZM13.5579 30.7941C13.52 30.8302 13.4648 30.8704 13.416 30.9044C13.3662 30.8714 13.312 30.8302 13.2719 30.7941L12.7053 30.1733C8.25717 25.3159 2.16558 18.6631 2.16558 12.5847C2.16558 6.87968 7.18359 2.0605 13.1224 2.0605C20.5205 2.0605 23.8323 7.34582 23.8323 12.5847C23.8323 17.1987 20.3753 23.3266 13.5579 30.7941ZM13.0379 6.24441C9.44883 6.24441 6.53792 9.01444 6.53792 12.4321C6.53792 15.8498 9.44883 18.6198 13.0379 18.6198C16.627 18.6198 19.5379 15.8487 19.5379 12.4321C19.5379 9.01547 16.6281 6.24441 13.0379 6.24441ZM13.0379 16.5572C10.6481 16.5572 8.65475 14.6617 8.65475 12.3867C8.65475 10.1117 10.5983 8.2616 12.9881 8.2616C15.379 8.2616 17.3214 10.1117 17.3214 12.3867C17.3225 14.6617 15.4288 16.5572 13.0379 16.5572Z" fill="#003056"/>
</svg>
