<svg width="46" height="36" viewBox="0 0 46 36" fill="none" xmlns="http://www.w3.org/2000/svg">
<path d="M45.3031 21.2796L39.4561 14.9751L45.3031 9.74341V21.2796Z" fill="#003056"/>
<path d="M5.85401 14.9748L0 21.2867V9.74316L5.85401 14.9748Z" fill="#003056"/>
<path d="M45.3031 27.3902V33.195C45.3031 34.5985 44.2059 35.7376 42.8539 35.7376H2.4492C1.0971 35.7376 0 34.5986 0 33.195V27.3902L8.75614 17.9553L18.7583 26.8977C19.7989 27.8237 21.1791 28.3381 22.6515 28.3381C24.124 28.3381 25.5113 27.8237 26.5518 26.8977L36.5467 17.9553L45.3031 27.3902Z" fill="#003056"/>
<path d="M45.3031 2.53505V5.07744L23.9397 24.1821C23.253 24.7994 22.0498 24.7994 21.3631 24.1821L0 5.07744V2.53505C0 1.13168 1.09701 0 2.4492 0H42.8539C44.2059 0 45.3031 1.13168 45.3031 2.53505Z" fill="#003056"/>
</svg>
