<svg width="15" height="14" viewBox="0 0 15 14" fill="none" xmlns="http://www.w3.org/2000/svg">
<path fill-rule="evenodd" clip-rule="evenodd" d="M7.87617 5.77556C9.21817 5.50642 10.2286 4.32872 10.2286 2.91667C10.2286 1.30584 8.91367 0 7.29166 0C5.66964 0 4.35474 1.30584 4.35474 2.91667C4.35474 4.32872 5.36515 5.50642 6.7071 5.77556C6.70522 5.79456 6.70428 5.81384 6.70428 5.83333V11.0833C6.70428 11.4055 6.96725 11.6667 7.29166 11.6667C7.61608 11.6667 7.87905 11.4055 7.87905 11.0833V5.83333C7.87905 5.81384 7.87811 5.79456 7.87617 5.77556ZM7.29166 4.67046C6.31637 4.67046 5.52569 3.88526 5.52569 2.91667C5.52569 1.94808 6.31637 1.16287 7.29166 1.16287C8.26696 1.16287 9.05763 1.94808 9.05763 2.91667C9.05763 3.88526 8.26696 4.67046 7.29166 4.67046Z" fill="white"/>
<path fill-rule="evenodd" clip-rule="evenodd" d="M3.05292 9.50777C3.54769 9.13251 4.19736 8.87386 4.9434 8.7845C5.26546 8.74594 5.5295 9.01118 5.5295 9.33336C5.5295 9.65553 5.26464 9.91062 4.94444 9.96231C4.44957 10.0421 4.05024 10.2194 3.7659 10.435C3.37157 10.7341 3.233 11.071 3.25188 11.3335C3.26971 11.5814 3.44208 11.9399 4.06524 12.2608C4.69443 12.5848 5.72842 12.8334 7.2916 12.8334C8.85487 12.8334 9.88884 12.5848 10.518 12.2608C11.1412 11.9399 11.3136 11.5814 11.3314 11.3335C11.3503 11.071 11.2117 10.7341 10.8174 10.435C10.5331 10.2194 10.1337 10.0421 9.63885 9.96231C9.31867 9.91062 9.05382 9.65553 9.05382 9.33336C9.05382 9.01118 9.31785 8.74594 9.63991 8.7845C10.3859 8.87386 11.0356 9.13251 11.5304 9.50777C12.1456 9.97432 12.5577 10.6582 12.5032 11.4166C12.4476 12.1895 11.9225 12.8518 11.0588 13.2965C10.2012 13.7382 8.95907 14 7.2916 14C5.62421 14 4.38209 13.7382 3.52447 13.2965C2.66081 12.8518 2.13567 12.1895 2.08009 11.4166C2.02555 10.6582 2.43767 9.97432 3.05292 9.50777Z" fill="white"/>
</svg>
