<svg width="37" height="35" viewBox="0 0 37 35" fill="none" xmlns="http://www.w3.org/2000/svg">
<path fill-rule="evenodd" clip-rule="evenodd" d="M35.0944 3.88931L31.7456 0.667624C30.8218 -0.222541 29.3219 -0.222541 28.3968 0.667624L23.3736 7.11097C22.6068 8.20094 22.4497 9.44246 23.3736 10.3326L25.4239 12.3049C23.9042 14.2693 22.0797 16.4111 20.026 18.3868C17.7034 20.6206 15.1203 22.6513 12.7978 24.3193L10.8162 22.4144C9.89229 21.5242 8.60184 21.6747 7.46735 22.4144L0.769751 27.2469C-0.353112 27.9934 -0.155302 29.5784 0.769751 30.4685L4.11855 33.6891C5.96866 35.4694 8.37381 34.8992 10.8162 33.6891C10.8162 33.6891 18.2084 29.6974 24.5372 23.6088C30.4901 17.8816 35.0944 10.3326 35.0944 10.3326C36.0544 7.79234 36.9445 5.66852 35.0944 3.88931Z" fill="#003056"/>
</svg>
