<svg width="13" height="14" viewBox="0 0 13 14" fill="none" xmlns="http://www.w3.org/2000/svg">
<path d="M8.91906 9.32806L9.2227 9.01954L8.51762 8.29493L8.21404 8.60345L8.91906 9.32806ZM10.2424 8.89031L11.5159 9.59782L11.9935 8.70012L10.7199 7.99261L10.2424 8.89031ZM11.7611 11.004L10.8141 11.9662L11.5191 12.6908L12.4661 11.7286L11.7611 11.004ZM10.2371 12.276C9.27057 12.368 6.76995 12.286 4.06253 9.53501L3.35748 10.2596C6.31198 13.2617 9.12398 13.4083 10.3299 13.2934L10.2371 12.276ZM4.06253 9.53501C1.48179 6.91275 1.0543 4.70721 1.00108 3.75038L0.00276563 3.80836C0.0697341 5.01263 0.599076 7.45683 3.35748 10.2596L4.06253 9.53501ZM4.97934 5.32491L5.17053 5.13063L4.46551 4.40605L4.27432 4.60032L4.97934 5.32491ZM5.32272 2.65428L4.48214 1.50684L3.68167 2.11921L4.52224 3.26665L5.32272 2.65428ZM1.655 1.25709L0.608675 2.32026L1.31372 3.04485L2.36004 1.98169L1.655 1.25709ZM4.62683 4.96261C4.27432 4.60032 4.27336 4.60129 4.27336 4.60129L4.27239 4.60228L4.2704 4.60434C4.2704 4.60434 4.26765 4.60722 4.26621 4.60874C4.26332 4.6118 4.26027 4.61511 4.25705 4.61868C4.25062 4.62581 4.24356 4.63397 4.236 4.64319C4.22089 4.66162 4.20376 4.68431 4.18576 4.71146C4.14968 4.76588 4.11036 4.83783 4.077 4.92833C4.00892 5.11297 3.97242 5.35637 4.01818 5.65778C4.10766 6.24722 4.50491 7.02583 5.5225 8.05978L6.22752 7.33517C5.27525 6.36756 5.0484 5.77872 5.00627 5.50113C4.98621 5.36902 5.00701 5.304 5.01274 5.2886C5.0162 5.27908 5.01787 5.2781 5.01361 5.28461C5.01147 5.28779 5.00794 5.29277 5.00241 5.29948C4.99967 5.30284 4.99641 5.30664 4.99261 5.31088C4.99067 5.313 4.98867 5.31522 4.98641 5.31756L4.98301 5.32115L4.98121 5.32301L4.98027 5.32396C4.98027 5.32396 4.97934 5.32491 4.62683 4.96261ZM5.5225 8.05978C6.54043 9.09406 7.30591 9.49659 7.88367 9.58719C8.17891 9.63345 8.41696 9.59653 8.59755 9.52779C8.68607 9.49407 8.7566 9.45436 8.80993 9.41784C8.8366 9.39959 8.85886 9.38222 8.87693 9.36689C8.88599 9.35926 8.89399 9.35211 8.90099 9.34557C8.90453 9.3423 8.90779 9.33923 8.91079 9.3363C8.91232 9.3348 8.91512 9.33201 8.91512 9.33201L8.91712 9.32997L8.91812 9.32901C8.91812 9.32901 8.91906 9.32806 8.56655 8.96572C8.21404 8.60345 8.21498 8.6025 8.21498 8.6025L8.21591 8.60154L8.21771 8.59971L8.22124 8.59623C8.22357 8.59398 8.22577 8.59194 8.22784 8.58996C8.23197 8.58615 8.23571 8.58281 8.23904 8.58009C8.24557 8.5745 8.25044 8.57096 8.25344 8.56885C8.25964 8.56462 8.25837 8.56653 8.24851 8.57028C8.23217 8.57648 8.16678 8.5978 8.03532 8.57716C7.75981 8.53404 7.17952 8.30242 6.22752 7.33517L5.5225 8.05978ZM4.48214 1.50684C3.80265 0.579304 2.4665 0.432536 1.655 1.25709L2.36004 1.98169C2.71447 1.62155 3.34395 1.6582 3.68167 2.11921L4.48214 1.50684ZM1.00108 3.75038C0.987968 3.5146 1.09379 3.26832 1.31372 3.04485L0.608675 2.32026C0.250488 2.68421 -0.0311053 3.19941 0.00276563 3.80836L1.00108 3.75038ZM10.8141 11.9662C10.6309 12.1524 10.4345 12.2572 10.2371 12.276L10.3299 13.2934C10.8196 13.2467 11.2208 12.9939 11.5191 12.6908L10.8141 11.9662ZM5.17053 5.13063C5.82681 4.46378 5.87561 3.40899 5.32272 2.65428L4.52224 3.26665C4.79122 3.63382 4.75122 4.11573 4.46551 4.40605L5.17053 5.13063ZM11.5159 9.59782C12.0611 9.90069 12.146 10.6128 11.7611 11.004L12.4661 11.7286C13.3596 10.8207 13.0841 9.30592 11.9935 8.70012L11.5159 9.59782ZM9.2227 9.01954C9.47868 8.75945 9.89072 8.69501 10.2424 8.89031L10.7199 7.99261C9.99758 7.5913 9.10111 7.70214 8.51762 8.29493L9.2227 9.01954Z" fill="white"/>
</svg>
