<svg width="33" height="43" viewBox="0 0 33 43" fill="none" xmlns="http://www.w3.org/2000/svg">
<path d="M16.5 0.000120563C7.38785 0.000120563 -2.90871e-05 7.08492 -2.90871e-05 15.8232C-2.90871e-05 19.2641 1.17628 22.4215 3.13153 25.0072C3.1666 25.0692 3.1721 25.1384 3.21197 25.1978L14.212 41.0209C14.7221 41.7547 15.5815 42.1951 16.5 42.1951C17.4185 42.1951 18.2778 41.7547 18.788 41.0209L29.788 25.1978C29.8285 25.1384 29.8333 25.0692 29.8684 25.0072C31.8237 22.4215 33 19.2641 33 15.8232C33 7.08492 25.6121 0.000120563 16.5 0.000120563ZM16.5 21.0976C13.4626 21.0976 11 18.736 11 15.8232C11 12.9105 13.4626 10.5489 16.5 10.5489C19.5373 10.5489 22 12.9105 22 15.8232C22 18.736 19.5373 21.0976 16.5 21.0976Z" fill="#003056"/>
</svg>
