<svg width="16" height="24" viewBox="0 0 16 24" fill="none" xmlns="http://www.w3.org/2000/svg">
<path d="M7.32543 22.5195C7.33379 23.0717 7.78822 23.5126 8.34044 23.5043C8.89267 23.4959 9.33356 23.0415 9.3252 22.4893L7.32543 22.5195ZM8.69633 0.282277C8.29994 -0.102295 7.66685 -0.0927177 7.28228 0.303669L1.01531 6.76317C0.630735 7.15955 0.640313 7.79264 1.0367 8.17722C1.43309 8.56179 2.06618 8.55221 2.45075 8.15583L8.02139 2.41405L13.7632 7.98469C14.1596 8.36926 14.7926 8.35969 15.1772 7.9633C15.5618 7.56691 15.5522 6.93382 15.1558 6.54925L8.69633 0.282277ZM9.3252 22.4893L8.99989 0.984873L7.00011 1.01513L7.32543 22.5195L9.3252 22.4893Z" fill="#003056"/>
</svg>
