<svg width="37" height="33" viewBox="0 0 37 33" fill="none" xmlns="http://www.w3.org/2000/svg">
<path d="M12.3333 27.5L13.4235 28.4723L12.3333 29.4446L11.2432 28.4723L12.3333 27.5ZM30.8333 20.625C30.8333 21.3844 30.1431 22 29.2917 22C28.4402 22 27.75 21.3844 27.75 20.625H30.8333ZM21.1318 21.5973L13.4235 28.4723L11.2432 26.5278L18.9516 19.6528L21.1318 21.5973ZM11.2432 28.4723L3.53487 21.5973L5.71513 19.6528L13.4235 26.5278L11.2432 28.4723ZM10.7917 27.5V13.0625H13.875V27.5H10.7917ZM30.8333 13.0625V20.625H27.75V13.0625H30.8333ZM20.8125 4.12504C26.3469 4.12504 30.8333 8.12657 30.8333 13.0625H27.75C27.75 9.64525 24.644 6.87504 20.8125 6.87504V4.12504ZM10.7917 13.0625C10.7917 8.12643 15.2781 4.12504 20.8125 4.12504V6.87504C16.981 6.87504 13.875 9.64525 13.875 13.0625H10.7917Z" fill="#003056"/>
</svg>
