<svg width="56" height="57" viewBox="0 0 56 57" fill="none" xmlns="http://www.w3.org/2000/svg">
<g clip-path="url(#clip0_79_156)">
<path d="M5.24998 19.5937C5.24998 18.6104 6.03398 17.8124 6.99998 17.8124C7.96598 17.8124 8.74998 18.6104 8.74998 19.5937C8.74998 20.5769 7.96598 21.3749 6.99998 21.3749C6.03398 21.3749 5.24998 20.5769 5.24998 19.5937ZM6.99998 39.1874C7.96598 39.1874 8.74998 38.3894 8.74998 37.4062C8.74998 36.4229 7.96598 35.6249 6.99998 35.6249C6.03398 35.6249 5.24998 36.4229 5.24998 37.4062C5.24998 38.3894 6.03398 39.1874 6.99998 39.1874ZM49 17.8124C48.034 17.8124 47.25 18.6104 47.25 19.5937C47.25 20.5769 48.034 21.3749 49 21.3749C49.966 21.3749 50.75 20.5769 50.75 19.5937C50.75 18.6104 49.966 17.8124 49 17.8124ZM36.75 28.4999C36.75 34.403 33.7995 39.1874 28 39.1874C22.2005 39.1874 19.25 34.403 19.25 28.4999C19.25 22.5969 22.2005 17.8124 28 17.8124C33.7995 17.8124 36.75 22.5969 36.75 28.4999ZM35 28.4999C35 24.1947 33.1607 19.5937 28 19.5937C22.8392 19.5937 21 24.1947 21 28.4999C21 32.8052 22.8392 37.4062 28 37.4062C33.1607 37.4062 35 32.8052 35 28.4999ZM49 35.6249C48.034 35.6249 47.25 36.4229 47.25 37.4062C47.25 38.3894 48.034 39.1874 49 39.1874C49.966 39.1874 50.75 38.3894 50.75 37.4062C50.75 36.4229 49.966 35.6249 49 35.6249ZM54.25 21.8737V39.1874C54.25 41.1557 52.6837 42.7499 50.75 42.7499H33.7995L21.8137 54.9497C21.1295 55.6462 20.2352 55.9935 19.3392 55.9935C18.4432 55.9935 17.5472 55.6462 16.8647 54.9497L4.83698 42.7072C3.22173 42.5113 1.95473 41.2038 1.78848 39.5526C0.755977 38.263 0.743727 36.4283 1.74998 35.1262V17.8124C1.74998 15.8442 3.31623 14.2499 5.24998 14.2499H22.2005L34.1862 2.05016C34.8705 1.35369 35.7647 1.00635 36.6607 1.00635C37.5567 1.00635 38.4527 1.35369 39.1352 2.05016L51.163 14.2927C52.7782 14.4886 54.0452 15.7943 54.2115 17.4473C55.244 18.7369 55.2562 20.5716 54.25 21.8737ZM24.6767 14.2499H48.6482L37.8997 3.3095C37.569 2.97285 37.1297 2.7876 36.6625 2.7876C36.1952 2.7876 35.756 2.97285 35.4252 3.3095L24.6767 14.2499ZM31.3232 42.7499H7.35173L18.1002 53.6904C18.431 54.027 18.8702 54.2123 19.3375 54.2123C19.8047 54.2123 20.244 54.027 20.5747 53.6904L31.3232 42.7499ZM52.5 17.8124C52.5 16.831 51.7142 16.0312 50.75 16.0312H5.24998C4.28573 16.0312 3.49998 16.831 3.49998 17.8124V39.1874C3.49998 40.1689 4.28573 40.9687 5.24998 40.9687H50.75C51.7142 40.9687 52.5 40.1689 52.5 39.1874V17.8124Z" fill="#003056"/>
</g>
<defs>
<clipPath id="clip0_79_156">
<rect width="56" height="57" fill="white"/>
</clipPath>
</defs>
</svg>
