<svg width="16" height="19" viewBox="0 0 16 19" fill="none" xmlns="http://www.w3.org/2000/svg">
<path d="M1.58416 13.1774C1.58416 12.6697 1.22953 12.2581 0.792079 12.2581C0.35463 12.2581 0 12.6697 0 13.1774H1.58416ZM16 13.1774C16 12.6697 15.6454 12.2581 15.2079 12.2581C14.7705 12.2581 14.4158 12.6697 14.4158 13.1774H16ZM8.62458 1.48482C8.89357 1.08447 8.83211 0.506763 8.48718 0.194477C8.14226 -0.117796 7.64451 -0.0463929 7.37542 0.353967L8.62458 1.48482ZM3.25663 6.48299C2.98759 6.88333 3.0491 7.46102 3.39404 7.77335C3.73896 8.08556 4.23669 8.01422 4.50575 7.61387L3.25663 6.48299ZM8.62458 0.353967C8.35548 -0.0463929 7.85774 -0.117796 7.51282 0.194477C7.16789 0.506763 7.10643 1.08447 7.37542 1.48482L8.62458 0.353967ZM11.4942 7.61387C11.7633 8.01422 12.2611 8.08556 12.606 7.77335C12.9509 7.46102 13.0124 6.88333 12.7434 6.48299L11.4942 7.61387ZM8.79208 0.919393C8.79208 0.411653 8.43744 4.03718e-05 8 4.03718e-05C7.56256 4.03718e-05 7.20792 0.411653 7.20792 0.919393H8.79208ZM7.20792 14.4032C7.20792 14.911 7.56256 15.3226 8 15.3226C8.43744 15.3226 8.79208 14.911 8.79208 14.4032H7.20792ZM0 13.1774V14.4032H1.58416V13.1774H0ZM0 14.4032C0 16.9199 1.71889 19 3.88119 19V17.1613C2.63136 17.1613 1.58416 15.9486 1.58416 14.4032H0ZM3.88119 19H12.1188V17.1613H3.88119V19ZM12.1188 19C14.2811 19 16 16.9199 16 14.4032H14.4158C14.4158 15.9486 13.3686 17.1613 12.1188 17.1613V19ZM16 14.4032V13.1774H14.4158V14.4032H16ZM7.37542 0.353967L3.25663 6.48299L4.50575 7.61387L8.62458 1.48482L7.37542 0.353967ZM7.37542 1.48482L11.4942 7.61387L12.7434 6.48299L8.62458 0.353967L7.37542 1.48482ZM7.20792 0.919393V14.4032H8.79208V0.919393H7.20792Z" fill="white"/>
</svg>
