<svg width="48" height="45" viewBox="0 0 48 45" fill="none" xmlns="http://www.w3.org/2000/svg">
<path d="M42 9.55266H30.666V7.38562C30.664 6.50851 30.2913 5.66788 29.6294 5.04793C28.9676 4.42798 28.0706 4.07924 27.135 4.07812H21.0495C20.1134 4.07924 19.216 4.42836 18.554 5.04893C17.8921 5.66949 17.5197 6.51083 17.5185 7.38844V9.55266H6C5.06389 9.55377 4.16646 9.90289 3.50452 10.5235C2.84259 11.144 2.47019 11.9854 2.469 12.863V37.613C2.47059 38.4903 2.84316 39.3313 3.50505 39.9516C4.16694 40.5718 5.06415 40.9208 6 40.9219H42C42.9361 40.9208 43.8335 40.5716 44.4955 39.9511C45.1574 39.3305 45.5298 38.4892 45.531 37.6116V12.863C45.5298 11.9854 45.1574 11.144 44.4955 10.5235C43.8335 9.90289 42.9361 9.55377 42 9.55266ZM9.6375 39.9277H6C5.34569 39.9269 4.71837 39.683 4.25556 39.2494C3.79275 38.8158 3.53219 38.2278 3.531 37.6144V12.863C3.5314 12.2491 3.7916 11.6604 4.2545 11.2262C4.7174 10.7919 5.34517 10.5476 6 10.5469H9.6375V39.9277ZM18.582 7.38562C18.5828 6.77233 18.843 6.18437 19.3056 5.75071C19.7682 5.31705 20.3953 5.07309 21.0495 5.07234H27.135C27.7892 5.07309 28.4163 5.31705 28.8789 5.75071C29.3415 6.18437 29.6017 6.77233 29.6025 7.38562V9.55266H18.582V7.38562ZM37.299 39.9277H10.701V10.5469H37.299V23.2875L34.209 21.9192C34.0815 21.8629 33.9353 21.8563 33.8026 21.9009C33.6699 21.9454 33.5614 22.0375 33.501 22.1569L29.655 29.7914C29.6249 29.8505 29.6076 29.9146 29.604 29.98C29.6004 30.0454 29.6106 30.1108 29.634 30.1725C29.6826 30.2959 29.7805 30.3968 29.907 30.4538L36.3855 33.3281C36.513 33.3844 36.6592 33.391 36.7919 33.3465C36.9246 33.3019 37.0331 33.2099 37.0935 33.0905L37.299 32.6812V39.9277ZM36.3585 32.2031L30.843 29.7605L34.2345 23.0273L39.75 25.4756L36.3585 32.2031ZM44.469 37.6087C44.4694 38.2231 44.2095 38.8125 43.7466 39.2474C43.2836 39.6822 42.6554 39.9269 42 39.9277H38.3625V30.7069C38.3593 30.673 38.3522 30.6395 38.3415 30.607L40.9395 25.4531C40.9994 25.3336 41.007 25.1967 40.9605 25.072C40.9109 24.9487 40.8126 24.848 40.686 24.7908L38.3625 23.7656V10.5469H42C42.6543 10.5476 43.2816 10.7915 43.7444 11.2252C44.2073 11.6588 44.4678 12.2467 44.469 12.8602V37.6087Z" fill="#003056"/>
<path d="M33.0465 19.0364C33.0465 17.2884 30.843 15.9187 28.0305 15.9187C25.218 15.9187 23.0115 17.2884 23.0115 19.0364C23.0115 20.7843 25.2165 22.1512 28.0305 22.1512C30.8445 22.1512 33.0465 20.7829 33.0465 19.0364ZM28.0305 21.1542C25.8855 21.1542 24.075 20.1853 24.075 19.0364C24.075 17.8875 25.8855 16.9157 28.0305 16.9157C30.1755 16.9157 31.983 17.8875 31.983 19.0364C31.983 20.1853 30.1725 21.1542 28.0305 21.1542Z" fill="#003056"/>
<path d="M22.2885 24.3113L15.9885 21.5185C15.8611 21.4626 15.7154 21.4562 15.583 21.5008C15.4506 21.5453 15.3424 21.6371 15.282 21.7561L13.2075 25.861C13.1772 25.92 13.1597 25.9841 13.156 26.0495C13.1524 26.1149 13.1627 26.1803 13.1862 26.2419C13.2098 26.3036 13.2463 26.3602 13.2935 26.4085C13.3406 26.4568 13.3976 26.4959 13.461 26.5233L19.7685 29.3161C19.8392 29.3479 19.9166 29.3642 19.995 29.364C20.0559 29.3647 20.1165 29.3546 20.1735 29.3344C20.2391 29.3125 20.2994 29.2786 20.3509 29.2347C20.4024 29.1908 20.4441 29.1377 20.4735 29.0785L22.5405 24.9736C22.5705 24.9147 22.5877 24.8507 22.5913 24.7855C22.5948 24.7202 22.5846 24.655 22.5612 24.5934C22.5378 24.5319 22.5016 24.4753 22.4548 24.4269C22.408 24.3785 22.3515 24.3392 22.2885 24.3113ZM19.7385 28.2024L14.4 25.8357L16.014 22.6322L21.3585 24.999L19.7385 28.2024Z" fill="#003056"/>
</svg>
