<svg width="44" height="42" viewBox="0 0 44 42" fill="none" xmlns="http://www.w3.org/2000/svg">
<path d="M31.3929 24.9556C30.8706 24.7243 28.3691 23.5681 27.9017 23.3882C27.4344 23.2084 27.1046 23.157 26.7472 23.6452C26.3898 24.1334 25.4277 25.1868 25.1253 25.5208C24.8229 25.8548 24.548 25.8805 24.0257 25.5208C22.5256 24.9581 21.1401 24.1585 19.9298 23.157C18.8342 22.1929 17.9067 21.0745 17.1809 19.8425C16.8785 19.38 17.1809 19.1231 17.4008 18.8662C17.6207 18.6092 17.8956 18.3266 18.1705 18.044C18.3715 17.7995 18.5378 17.5318 18.6653 17.2475C18.7335 17.1152 18.7689 16.9703 18.7689 16.8235C18.7689 16.6767 18.7335 16.5318 18.6653 16.3996C18.6653 16.1683 17.5108 13.8302 17.0709 12.8795C16.6311 11.9289 16.2462 12.0573 15.9439 12.0573H14.8443C14.3205 12.0764 13.8262 12.2889 13.4698 12.6483C12.8946 13.1613 12.439 13.7799 12.1315 14.4652C11.8241 15.1505 11.6714 15.8878 11.683 16.6308C11.8236 18.455 12.5412 20.199 13.7447 21.6411C15.9531 24.7074 18.9745 27.1862 22.5138 28.8353C23.7234 29.3235 24.658 29.6061 25.4002 29.8374C26.4425 30.1318 27.5441 30.1934 28.6165 30.0172C29.3287 29.8822 30.0037 29.6118 30.5995 29.2228C31.1953 28.8339 31.6993 28.3347 32.0801 27.7562C32.3971 27.0417 32.5016 26.2605 32.3825 25.4951C32.2451 25.3153 31.9152 25.1868 31.3929 24.9556Z" fill="#003056"/>
<path d="M36.5334 7.45808C34.6323 5.66436 32.3662 4.24463 29.8686 3.28263C27.3711 2.32064 24.6927 1.83584 21.9915 1.85686C18.4132 1.87436 14.9024 2.76906 11.8098 4.45162C8.71724 6.13417 6.15107 8.54567 4.36762 11.4453C2.58417 14.3449 1.64587 17.6311 1.64643 20.9757C1.64699 24.3203 2.58639 27.6062 4.37081 30.5053L1.62187 40.3974L12.4527 37.828C15.4469 39.3509 18.8026 40.1461 22.2114 40.1405H21.9915C26.0542 40.1652 30.0328 39.0584 33.4198 36.9613C36.8068 34.8641 39.4488 31.8716 41.0089 28.3653C42.569 24.859 42.9765 20.9979 42.1794 17.2743C41.3823 13.5507 39.4168 10.1334 36.5334 7.45808ZM21.9915 36.8517C18.9417 36.8539 15.9486 36.0813 13.3324 34.6163L12.7276 34.2823L6.29507 35.8496L7.99941 29.9915L7.61456 29.4005C5.41914 26.0959 4.59791 22.153 5.30668 18.3199C6.01546 14.4868 8.20494 11.0302 11.4597 8.60604C14.7144 6.18183 18.808 4.95865 22.9637 5.16856C27.1194 5.37848 31.0481 7.00688 34.0044 9.74482C35.5893 11.2142 36.8454 12.9637 37.6996 14.8914C38.5539 16.8191 38.9891 18.8865 38.98 20.973C38.9727 25.1822 37.1805 29.217 33.9961 32.1934C30.8118 35.1698 26.4949 36.8449 21.9915 36.8517Z" fill="#003056"/>
</svg>
