<svg width="47" height="47" viewBox="0 0 47 47" fill="none" xmlns="http://www.w3.org/2000/svg">
<g clip-path="url(#clip0_79_111)">
<path d="M23.5 0C10.5214 0 0 10.5214 0 23.5C0 36.4786 10.5214 47 23.5 47C36.4786 47 47 36.4786 47 23.5C47 10.5214 36.4786 0 23.5 0ZM23.5 45.5312C11.3321 45.5312 1.46875 35.6671 1.46875 23.5C1.46875 11.3321 11.3321 1.46875 23.5 1.46875C35.6679 1.46875 45.5312 11.3321 45.5312 23.5C45.5312 35.6671 35.6679 45.5312 23.5 45.5312Z" fill="#003056"/>
<path d="M23.5 24.2344C23.9056 24.2344 24.2344 23.9056 24.2344 23.5C24.2344 23.0944 23.9056 22.7656 23.5 22.7656C23.0944 22.7656 22.7656 23.0944 22.7656 23.5C22.7656 23.9056 23.0944 24.2344 23.5 24.2344Z" fill="#003056"/>
<path d="M27.1212 24.0052C27.144 23.8385 27.1719 23.6733 27.1719 23.5C27.1719 22.3022 26.5903 21.2499 25.7031 20.5787V10.2812C25.7031 9.06439 24.7169 8.07812 23.5 8.07812C22.2831 8.07812 21.2969 9.06439 21.2969 10.2812V20.5787C20.4098 21.2491 19.8281 22.3022 19.8281 23.5C19.8281 25.5283 21.4717 27.1719 23.5 27.1719C23.6726 27.1719 23.8385 27.144 24.0052 27.1212L30.2511 33.3671C31.1118 34.2278 32.5056 34.227 33.3663 33.3663C34.227 32.5056 34.227 31.1118 33.3663 30.2511L27.1212 24.0052ZM22.7656 10.2812C22.7656 9.87514 23.0939 9.54688 23.5 9.54688C23.9061 9.54688 24.2344 9.87514 24.2344 10.2812V19.9023C23.9972 19.8538 23.7519 19.8281 23.5 19.8281C23.2481 19.8281 23.0028 19.8538 22.7656 19.9023V10.2812ZM21.2969 23.5C21.2969 22.2831 22.2831 21.2969 23.5 21.2969C24.7169 21.2969 25.7031 22.2831 25.7031 23.5C25.7031 24.7169 24.7169 25.7031 23.5 25.7031C22.2831 25.7031 21.2969 24.7169 21.2969 23.5ZM32.3279 32.3279C32.0408 32.6158 31.5767 32.6158 31.2895 32.3287L25.5225 26.5616C25.9352 26.2884 26.2884 25.9352 26.5616 25.5225L32.3279 31.2895C32.6143 31.5759 32.6143 32.0408 32.3279 32.3279Z" fill="#003056"/>
<path d="M23.5 2.9375C12.1436 2.9375 2.9375 12.1436 2.9375 23.5C2.9375 34.8564 12.1436 44.0625 23.5 44.0625C34.8564 44.0625 44.0625 34.8564 44.0625 23.5C44.0625 12.1436 34.8564 2.9375 23.5 2.9375ZM37.5082 36.4691L35.9638 34.9239C35.6752 34.6375 35.2111 34.6375 34.9247 34.9239C34.6375 35.2118 34.6375 35.6752 34.9247 35.9631L36.4698 37.5082C33.2319 40.5081 28.9535 42.3969 24.2351 42.5754L24.2358 40.3914C24.2344 39.9852 23.9061 39.657 23.5015 39.657C23.0946 39.6577 22.7671 39.9852 22.7671 40.3914L22.7664 42.5754C18.048 42.3969 13.7695 40.5089 10.5317 37.5097L12.0768 35.9645C12.3632 35.6767 12.3632 35.2125 12.0768 34.9261C11.7882 34.639 11.3255 34.639 11.0384 34.9261L9.49327 36.4713C6.49408 33.2334 4.60527 28.9549 4.42608 24.2366H6.61011C7.01622 24.2358 7.34448 23.9076 7.34448 23.5022C7.34375 23.0954 7.01622 22.7678 6.61011 22.7678H4.42461C4.60306 18.0495 6.49114 13.7703 9.49033 10.5324L11.0355 12.0775C11.3226 12.3647 11.7867 12.3647 12.0739 12.0775C12.361 11.7897 12.361 11.3263 12.0739 11.0391L10.5287 9.494C13.7666 6.49408 18.0458 4.60527 22.7642 4.42681V6.60938C22.7642 7.01548 23.0924 7.34375 23.4985 7.34375C23.9046 7.34375 24.2329 7.01548 24.2329 6.60938V4.42461C28.9513 4.60306 33.2305 6.49114 36.4683 9.49106L34.9232 11.0362C34.6361 11.3233 34.6361 11.7875 34.9232 12.0746C35.2103 12.3617 35.6745 12.3617 35.9616 12.0746L37.5075 10.5295C40.5067 13.7673 42.3955 18.0465 42.5739 22.7649H40.3906C39.9845 22.7649 39.6562 23.0932 39.6562 23.4993C39.6562 23.9054 39.9845 24.2336 40.3906 24.2336H42.5754C42.3962 28.9527 40.5081 33.2312 37.5082 36.4691Z" fill="#003056"/>
</g>
<defs>
<clipPath id="clip0_79_111">
<rect width="47" height="47" fill="white"/>
</clipPath>
</defs>
</svg>
